<?xml version="1.0" encoding="UTF-8"?>
<svg id="Layer_2" data-name="Layer 2" xmlns="http://www.w3.org/2000/svg" viewBox="0 0 331.85 192.21">
  <defs>
    <style>
      .cls-1 {
        fill: #fff;
      }

      .cls-2 {
        fill: #e8271d;
      }
    </style>
  </defs>
  <g id="Layer_1-2" data-name="Layer 1">
    <g>
      <path class="cls-2" d="M315.85,21.26h-21.14s-1.16-.13-1.16-.13c-2.48-.48-5.04-.72-7.6-.72-8.08,0-15.95,2.39-22.18,6.74-2.15,1.5-4.94,1.77-7.55,.56-.29-.13-.56-.32-.81-.52-7.33-5.66-15.57-6.44-23.38-6.44-2.9,0-5.81,.12-8.89,.25-1.58,.07-4.98,.18-4.98,.18-3.24,0-6.06-2.12-7.02-5.28C208.29,6.54,198.65,0,187.69,0c-6.3,0-12.02,2.27-16.11,6.39-1.35,1.36-3.26,2.15-5.24,2.15h-62.88c-4.7,0-8.09,3.84-8.14,8.54-.02,2.44-2.01,4.4-4.45,4.4h-4.81s-4.04-1.45-11.08-1.45c-3.27,0-6.29,.4-9.04,1.2-.62,.17-1.25,.25-1.87,.25H16C7.16,21.47,0,28.64,0,37.47V170.13c0,8.84,7.16,16,16,16h9.58c2.42,0,4.37-1.96,4.37-4.37v-.02c0-2.42,1.96-4.37,4.37-4.37h47.81c2.42,0,4.37,1.96,4.37,4.37h0c0,2.42,1.96,4.37,4.37,4.37h63.04c1.47,0,2.83,.75,3.68,1.95,2.67,3.76,7.6,5.17,11.86,3.39l11.41-4.77c.89-.37,1.85-.57,2.82-.57h5.17c8.84,0,16-7.16,16-16v-25.08c0-2.46,1.99-4.45,4.45-4.45l57.15-.02c2.88,0,5.22-2.34,5.22-5.22h0c0-2.88,2.33-5.21,5.21-5.22l14.46-.02c16.23-.47,29.93-8.35,35.95-20.83,0,0,3.59-6.8,4.54-21.51,0-.1,0-50.5,0-50.5,0-8.84-7.16-16-16-16Z"/>
      <g>
        <path class="cls-1" d="M18.6,155.54c.56-.32,1.2-.48,1.84-.46,.69,0,1.37,.17,1.96,.52,.59,.35,1.07,.85,1.38,1.45,.34,.67,.52,1.42,.5,2.18,.01,.76-.16,1.51-.5,2.18-.31,.62-.79,1.13-1.38,1.49-.59,.36-1.27,.54-1.96,.54-.64,.01-1.27-.15-1.83-.46-.49-.28-.91-.68-1.2-1.17v5.33s-1.35,0-1.35,0v-11.92s1.35,0,1.35,0v1.49c.29-.49,.7-.89,1.19-1.16Zm3.94,2.09c-.23-.43-.57-.79-1-1.03-.42-.24-.9-.36-1.38-.35-.48,0-.95,.12-1.37,.36-.43,.25-.77,.61-1,1.05-.26,.49-.39,1.03-.38,1.58-.01,.56,.12,1.11,.38,1.6,.23,.44,.58,.8,1,1.05,.42,.24,.89,.36,1.37,.36,.48,0,.96-.12,1.38-.36,.43-.25,.77-.61,1-1.05,.26-.5,.39-1.06,.37-1.62,.01-.56-.12-1.1-.37-1.6Z"/>
        <path class="cls-1" d="M27.83,162.91c-.61-.34-1.12-.85-1.45-1.47-.36-.68-.54-1.44-.53-2.21-.02-.76,.17-1.52,.54-2.19,.34-.62,.85-1.12,1.47-1.46,.64-.33,1.36-.51,2.08-.51s1.44,.18,2.08,.51c.62,.33,1.13,.84,1.48,1.45,.37,.67,.56,1.43,.54,2.2,.02,.77-.17,1.54-.55,2.21-.35,.62-.88,1.13-1.5,1.47-.65,.35-1.37,.53-2.1,.52-.72,.01-1.43-.17-2.06-.52Zm3.42-1c.43-.23,.79-.59,1.03-1.01,.26-.45,.39-1,.39-1.65s-.13-1.2-.38-1.65c-.23-.43-.58-.78-1.01-1.01-.42-.22-.88-.33-1.35-.33s-.93,.11-1.35,.33c-.42,.23-.77,.59-.99,1.01-.25,.45-.37,1-.37,1.65s.12,1.22,.36,1.67c.22,.43,.55,.78,.97,1.01,.41,.22,.86,.34,1.33,.33,.48,0,.95-.12,1.36-.35h0Z"/>
        <path class="cls-1" d="M46.92,155.21l-2.53,8.09h-1.39s-1.95-6.42-1.95-6.42l-1.95,6.42h-1.39s-2.55-8.09-2.55-8.09h1.38s1.86,6.79,1.86,6.79l2.01-6.79h1.38s1.97,6.8,1.97,6.8l1.84-6.8h1.33Z"/>
        <path class="cls-1" d="M55.91,159.76h-6.48c.05,.8,.32,1.42,.82,1.87,.5,.45,1.14,.69,1.81,.67,.58,0,1.07-.13,1.46-.4,.38-.26,.67-.64,.82-1.09h1.45c-.21,.76-.66,1.43-1.3,1.9-.65,.49-1.46,.73-2.43,.73-.72,.01-1.43-.17-2.06-.52-.61-.34-1.1-.85-1.43-1.47-.36-.68-.53-1.44-.52-2.21-.02-.76,.16-1.52,.5-2.2,.32-.61,.81-1.12,1.42-1.45,.64-.35,1.36-.52,2.09-.51,.71-.01,1.42,.16,2.04,.51,.58,.32,1.06,.8,1.37,1.38,.33,.61,.49,1.29,.48,1.98,0,.25-.01,.52-.04,.81Zm-1.69-2.41c-.22-.36-.54-.66-.93-.84-.4-.2-.85-.29-1.29-.29-.64-.01-1.27,.22-1.74,.65-.47,.43-.75,1.04-.82,1.8h5.12c.01-.46-.1-.92-.34-1.32Z"/>
        <path class="cls-1" d="M60.38,155.45c.44-.25,.97-.38,1.6-.38v1.39s-.35,0-.35,0c-1.51,0-2.27,.82-2.27,2.45v4.4s-1.35,0-1.35,0v-8.09s1.35,0,1.35,0v1.32c.22-.45,.58-.83,1.02-1.09Z"/>
        <path class="cls-1" d="M71.19,159.76h-6.48c.05,.8,.32,1.42,.82,1.87,.5,.45,1.15,.69,1.81,.67,.58,0,1.07-.13,1.46-.4,.38-.27,.67-.65,.82-1.09h1.45c-.21,.76-.66,1.43-1.3,1.9-.65,.49-1.46,.73-2.42,.73-.72,.01-1.43-.17-2.06-.52-.61-.34-1.1-.85-1.43-1.47-.35-.68-.53-1.44-.52-2.21-.02-.76,.16-1.52,.5-2.2,.32-.61,.81-1.12,1.42-1.45,.64-.35,1.36-.52,2.09-.51,.71-.01,1.42,.16,2.04,.51,.58,.32,1.05,.8,1.37,1.38,.33,.61,.49,1.29,.48,1.98,0,.25-.02,.53-.05,.81Zm-1.69-2.41c-.22-.36-.54-.66-.92-.84-.4-.2-.85-.29-1.29-.29-.64-.01-1.27,.22-1.74,.65-.47,.43-.75,1.04-.82,1.8h5.12c.01-.46-.1-.92-.34-1.32Z"/>
        <path class="cls-1" d="M73.3,157.05c.32-.6,.8-1.11,1.38-1.45,.6-.35,1.28-.53,1.98-.52,.62,0,1.22,.15,1.77,.44,.51,.26,.94,.66,1.24,1.15v-4.29s1.36,0,1.36,0v10.92s-1.36,0-1.36,0v-1.52c-.28,.5-.69,.91-1.18,1.19-.56,.32-1.19,.48-1.83,.46-.69,0-1.37-.18-1.96-.54-.59-.36-1.07-.88-1.38-1.49-.34-.68-.51-1.43-.5-2.18-.02-.75,.16-1.5,.5-2.17Zm5.99,.6c-.23-.43-.57-.79-1-1.04-.42-.24-.9-.36-1.38-.36-.48,0-.96,.12-1.38,.35-.42,.24-.77,.6-.99,1.03-.25,.49-.38,1.04-.37,1.6-.01,.56,.11,1.12,.37,1.62,.23,.43,.57,.8,.99,1.05,.42,.24,.89,.36,1.38,.36,.48,0,.96-.12,1.38-.36,.43-.25,.77-.61,1-1.05,.26-.5,.38-1.05,.37-1.6,.01-.55-.12-1.1-.37-1.59h0Z"/>
        <path class="cls-1" d="M90.41,155.53c.56-.31,1.18-.47,1.82-.46,.69,0,1.37,.17,1.97,.52,.59,.35,1.06,.85,1.38,1.45,.35,.67,.52,1.42,.5,2.18,.01,.76-.16,1.51-.5,2.18-.31,.62-.79,1.13-1.38,1.49-.59,.36-1.27,.54-1.96,.54-.64,.01-1.28-.14-1.84-.46-.5-.28-.91-.68-1.19-1.17v1.49s-1.35,0-1.35,0v-10.92s1.35,0,1.35,0v4.34c.29-.49,.71-.9,1.21-1.18Zm3.92,2.1c-.23-.43-.57-.79-1-1.03-.42-.24-.9-.36-1.38-.35-.48,0-.95,.12-1.37,.36-.43,.25-.77,.61-1,1.05-.26,.49-.39,1.03-.38,1.58-.01,.56,.12,1.11,.38,1.6,.23,.44,.58,.8,1,1.05,.42,.24,.89,.36,1.37,.36,.49,0,.96-.12,1.38-.36,.43-.25,.77-.61,1-1.05,.26-.5,.39-1.06,.37-1.62,.01-.55-.11-1.1-.37-1.6Z"/>
        <path class="cls-1" d="M105.13,155.21l-4.88,11.9h-1.39s1.6-3.9,1.6-3.9l-3.27-8h1.5s2.54,6.55,2.54,6.55l2.52-6.55h1.39Z"/>
      </g>
      <g>
        <path class="cls-1" d="M26.01,124.55l-4.05-7.33h-1.14v7.33s-4.74,0-4.74,0v-19.43s7.96,0,7.96,0c1.54,0,2.85,.27,3.93,.8,1.08,.53,1.89,1.27,2.43,2.2,.54,.95,.82,2.02,.81,3.11,.02,1.24-.37,2.45-1.1,3.46-.73,1.01-1.81,1.73-3.23,2.16l4.49,7.69h-5.35Zm-5.19-10.68h2.95c.87,0,1.53-.21,1.95-.64,.43-.42,.65-1.02,.65-1.8s-.22-1.32-.65-1.74c-.43-.42-1.09-.64-1.95-.64h-2.95s0,4.82,0,4.82Z"/>
        <path class="cls-1" d="M52.67,108.91v3.93h6.35s0,3.65,0,3.65h-6.35v4.26h7.19s0,3.79,0,3.79h-11.93s0-19.43,0-19.43h11.93s0,3.8,0,3.8h-7.19Z"/>
        <path class="cls-1" d="M79.91,124.05c-1.07-.42-2.01-1.13-2.7-2.05-.68-.91-1.03-1.99-1.07-3.27h5.05c.08,.72,.32,1.27,.75,1.65,.43,.38,.98,.57,1.66,.57s1.26-.16,1.67-.49c.4-.32,.61-.77,.61-1.34,0-.22-.03-.44-.12-.64-.08-.21-.21-.39-.37-.54-.35-.33-.75-.59-1.19-.77-.66-.27-1.33-.5-2.01-.69-1.06-.31-2.09-.7-3.08-1.16-.81-.4-1.51-.99-2.05-1.72-.57-.75-.86-1.74-.86-2.96,0-1.81,.66-3.23,1.97-4.25s3.02-1.54,5.13-1.54c2.15,0,3.88,.51,5.19,1.54,1.31,1.02,2.01,2.45,2.11,4.28h-5.13c-.04-.63-.27-1.12-.69-1.48-.43-.36-.97-.54-1.64-.54-.57,0-1.04,.15-1.39,.46-.35,.3-.53,.74-.53,1.32,0,.63,.3,1.12,.89,1.47,.59,.35,1.52,.73,2.77,1.14,1.05,.34,2.07,.75,3.06,1.22,.8,.4,1.5,.97,2.04,1.69,.57,.74,.86,1.69,.86,2.85,.01,1.06-.28,2.11-.84,3.02-.57,.9-1.39,1.62-2.46,2.16-1.07,.53-2.34,.8-3.8,.8-1.42,0-2.7-.23-3.83-.69Z"/>
        <path class="cls-1" d="M112.26,108.91v3.93h6.35s0,3.65,0,3.65h-6.35v4.26h7.19s0,3.79,0,3.79h-11.93s0-19.43,0-19.43h11.93s0,3.8,0,3.8h-7.19Z"/>
        <path class="cls-1" d="M148.41,121.11h-7.27s-1.16,3.43-1.16,3.43h-4.97s7.05-19.43,7.05-19.43h5.49s7.05,19.43,7.05,19.43h-5.02s-1.17-3.43-1.17-3.43Zm-1.22-3.65l-2.41-7.11-2.38,7.11h4.8Z"/>
        <path class="cls-1" d="M180.43,124.55l-4.05-7.33h-1.14v7.33s-4.74,0-4.74,0v-19.43s7.96,0,7.96,0c1.54,0,2.85,.27,3.93,.8s1.89,1.27,2.43,2.2c.54,.95,.82,2.02,.8,3.11,.02,1.24-.37,2.45-1.1,3.46-.73,1.01-1.81,1.73-3.23,2.16l4.49,7.69h-5.35Zm-5.19-10.68h2.95c.87,0,1.53-.21,1.95-.64,.43-.42,.65-1.02,.65-1.8s-.22-1.32-.65-1.74c-.43-.42-1.09-.64-1.95-.64h-2.95v4.82Z"/>
        <path class="cls-1" d="M202.78,109.67c.8-1.48,2.01-2.7,3.48-3.52,1.49-.84,3.18-1.26,5.06-1.26,2.31,0,4.29,.61,5.94,1.83,1.65,1.22,2.75,2.88,3.3,4.98h-5.22c-.35-.77-.93-1.42-1.65-1.85-.74-.43-1.57-.65-2.43-.64-1.46,0-2.64,.51-3.55,1.52-.91,1.01-1.36,2.37-1.36,4.07,0,1.7,.45,3.06,1.36,4.07,.9,1.01,2.09,1.52,3.55,1.52,.85,.01,1.69-.21,2.43-.64,.73-.44,1.3-1.08,1.65-1.85h5.22c-.56,2.1-1.66,3.76-3.3,4.97-1.65,1.21-3.62,1.82-5.94,1.81-1.89,0-3.57-.42-5.06-1.26-1.47-.82-2.68-2.03-3.48-3.5-.83-1.5-1.25-3.2-1.25-5.12,0-1.92,.41-3.63,1.25-5.13Z"/>
        <path class="cls-1" d="M254.11,105.12v19.43s-4.75,0-4.75,0v-8h-7.38v8s-4.74,0-4.74,0v-19.43s4.74,0,4.74,0v7.61h7.38v-7.61s4.75,0,4.75,0Z"/>
        <path class="cls-1" d="M182.56,28.94c-1.52-1.45-2.28-3.27-2.28-5.43,0-2.17,.76-3.98,2.28-5.44,1.52-1.45,3.43-2.18,5.73-2.18s4.21,.73,5.73,2.18c1.52,1.46,2.28,3.27,2.28,5.44,0,2.17-.76,3.98-2.28,5.43-1.52,1.46-3.43,2.18-5.73,2.18-2.3,0-4.2-.73-5.73-2.18Zm12.15,8.32v51.45s-13.04,0-13.04,0V37.26s13.04,0,13.04,0Z"/>
        <path class="cls-1" d="M248.43,42.32c3.79,3.87,5.68,9.27,5.68,16.21v30.19s-13.03,0-13.03,0v-28.42c0-4.09-1.03-7.23-3.08-9.43-2.05-2.2-4.84-3.3-8.38-3.29-3.6,0-6.44,1.1-8.52,3.3-2.08,2.2-3.12,5.34-3.12,9.43v28.42s-13.04,0-13.04,0V37.26s13.04,0,13.04,0v6.41c1.74-2.23,3.96-3.98,6.66-5.25,2.7-1.27,5.66-1.9,8.89-1.91,6.14,0,11.11,1.94,14.9,5.81Z"/>
        <path class="cls-1" d="M295.98,38.7c2.91,1.52,5.21,3.48,6.89,5.9v-7.34s13.13,0,13.13,0v51.83c0,4.77-.96,9.03-2.89,12.77-1.92,3.75-4.81,6.72-8.65,8.92-3.85,2.2-8.51,3.3-13.97,3.3-7.33,0-13.33-1.7-18.02-5.11-4.68-3.41-7.34-8.05-7.96-13.93h12.94c.68,2.35,2.16,4.23,4.42,5.62,2.26,1.39,5.01,2.09,8.24,2.09,3.79,0,6.86-1.13,9.21-3.39,2.36-2.26,3.54-5.68,3.54-10.26v-7.99c-1.68,2.42-3.99,4.43-6.93,6.04-2.95,1.61-6.32,2.41-10.11,2.41-4.35,0-8.32-1.12-11.92-3.35-3.6-2.23-6.44-5.37-8.52-9.43-2.08-4.06-3.12-8.72-3.12-13.98,0-5.2,1.04-9.81,3.12-13.84,2.08-4.03,4.9-7.12,8.47-9.29,3.57-2.16,7.56-3.25,11.96-3.25,3.85,0,7.23,.76,10.15,2.27Zm5.02,16.16c-1.24-2.26-2.92-3.99-5.02-5.2-2.07-1.19-4.41-1.82-6.8-1.81-2.35-.02-4.67,.59-6.7,1.77-2.05,1.18-3.71,2.89-4.98,5.15-1.27,2.26-1.91,4.94-1.91,8.03,0,3.1,.64,5.81,1.91,8.13,1.27,2.32,2.95,4.1,5.03,5.34,2.01,1.22,4.31,1.86,6.66,1.86,2.39,0,4.73-.62,6.8-1.81,2.11-1.21,3.79-2.94,5.02-5.2,1.24-2.26,1.86-4.97,1.86-8.13,0-3.16-.62-5.87-1.86-8.13Z"/>
        <path class="cls-1" d="M35.6,38.84c2.7-1.55,5.79-2.32,9.26-2.32v13.66s-3.44,0-3.44,0c-4.1,0-7.18,.96-9.27,2.88-2.08,1.92-3.12,5.26-3.12,10.03v25.64s-13.04,0-13.04,0V37.26s13.04,0,13.04,0v7.99c1.68-2.72,3.86-4.86,6.56-6.41Z"/>
        <path class="cls-1" d="M61.53,86.25c-3.97-2.2-7.09-5.31-9.35-9.33-2.26-4.03-3.4-8.67-3.4-13.94,0-5.26,1.16-9.91,3.49-13.93,2.33-4.03,5.51-7.14,9.54-9.33,4.03-2.2,8.53-3.3,13.5-3.3,4.97,0,9.47,1.1,13.5,3.3,4.03,2.2,7.22,5.31,9.54,9.33,2.33,4.02,3.49,8.67,3.49,13.93,0,5.27-1.19,9.91-3.58,13.93-2.39,4.02-5.62,7.13-9.68,9.33-4.07,2.2-8.61,3.3-13.64,3.3-4.97,0-9.44-1.1-13.41-3.29Zm20.07-9.75c2.08-1.15,3.74-2.86,4.98-5.16,1.24-2.29,1.87-5.08,1.86-8.36,0-4.89-1.29-8.65-3.86-11.29-2.58-2.63-5.73-3.95-9.45-3.95-3.72,0-6.84,1.32-9.35,3.95-2.51,2.63-3.77,6.39-3.77,11.29,0,4.89,1.23,8.65,3.68,11.29,2.45,2.63,5.54,3.95,9.27,3.95,2.33,0,4.62-.59,6.65-1.72Z"/>
        <path class="cls-1" d="M172.11,47.94v-10.68h-11.54s0-12.73,0-12.73h-13.13v12.73s-22.99,0-22.99,0v-12.73h-13.13v12.73s-6.15,0-6.15,0v10.68h6.15s0,24.8,0,24.8c0,10.65,5.49,15.98,16.48,15.98h8.19v-10.96h-6.05c-1.99,0-3.4-.39-4.24-1.16-.84-.77-1.26-2.03-1.26-3.76v-24.89s22.99,0,22.99,0v24.8c0,10.65,5.49,15.98,16.48,15.98h8.19v-10.96h-6.05c-1.99,0-3.4-.39-4.24-1.16-.84-.77-1.26-2.03-1.26-3.76v-24.89s11.55,0,11.55,0Z"/>
      </g>
      <g>
        <path class="cls-1" d="M188.13,144.31c-.31-.76-.77-1.44-1.35-2.02-.58-.58-1.27-1.04-2.03-1.35-.76-.31-1.56-.47-2.39-.47l-63.64,.03c-.2,0-.41,.01-.61,.03-1.43,.14-2.78,.78-3.8,1.8-1.18,1.18-1.83,2.75-1.83,4.41v19.16c0,1.67,.66,3.23,1.84,4.41,1.18,1.18,2.75,1.82,4.42,1.82l37.69-.02,.26,2.58c.07,.73,.42,1.42,.99,1.9,.56,.48,1.27,.7,1.99,.63,.33-.03,.65-.13,.95-.28l.87,1.28c.86,1.27,2.06,1.3,2.54,1.25s.91-.21,1.34-.5l.3-.2,1.74-1.17c1.31-.89,1.63-2.54,.75-3.86-.22-.33-.54-.8-.88-1.31,.14-.11,.24-.22,.33-.33h14.77c.2,0,.41-.02,.61-.04,1.43-.14,2.78-.78,3.8-1.8,1.18-1.18,1.83-2.74,1.83-4.41v-19.16c0-.83-.17-1.63-.49-2.39Z"/>
        <g>
          <polygon class="cls-2" points="156.98 151.73 153.29 151.73 150.4 156.05 150.4 148.13 145.84 148.13 145.85 163.28 150.4 163.28 150.4 158.67 153.25 163.28 156.99 163.28 156.98 161.07 154.26 157.55 156.98 153.88 156.98 151.73"/>
          <path class="cls-2" d="M173.06,156.95c-.48-.81-1.18-1.47-2.02-1.9-.9-.43-1.88-.66-2.87-.66s-1.98,.23-2.87,.66c-.84,.43-1.54,1.09-2.02,1.9-.48,.82-.73,1.79-.73,2.89s.25,2.07,.73,2.89c.48,.82,1.18,1.48,2.02,1.9,.9,.43,1.88,.66,2.87,.66s1.97-.23,2.87-.66c.84-.43,1.55-1.09,2.02-1.91h0c.48-.82,.73-1.79,.73-2.89s-.25-2.07-.73-2.89Zm-2.5,3c0,.09-.03,.12-.12,.11-.02,0-.03,0-.05,0-.02,0-.03,0-.05,.01-.01,0-.02,.02-.03,.04-.01,.09-.02,.18-.02,.28,0,.02,.02,.02,.03,.03-.04,0-.04,0-.03,.03,.02,.04,.03,.07,.05,.11,0,.02,.02,.04,.03,.06s.01,.03,0,.04c-.01,0-.02,0-.03,0l-.09-.07c-.06-.05-.09-.05-.14,.01-.03,.04-.05,.09-.05,.14,0,.14,0,.28,.02,.41,.02,.09,.05,.17,.1,.25,.04,.07,.08,.15,.1,.23,.01,.07,0,.14-.04,.2-.02,.03-.04,.04-.07,.05-.03,.01-.06,.01-.09,0-.03,0-.05-.02-.07-.04-.02-.02-.03-.04-.04-.07,0-.07,0-.13,.02-.2,.01-.09,0-.18-.01-.26,0-.04-.03-.08-.06-.11-.03-.03-.07-.05-.11-.05-.05,0-.11,0-.16,.03-.05,.03-.08,.07-.1,.12-.04,.11-.06,.22-.07,.33,0,.15-.03,.3-.05,.45-.03,.22,0,.45,.08,.65,.04,.08,.07,.16,.1,.25,0,.03,0,.06,0,.09,0,.03-.02,.06-.04,.08-.01,.02-.03,.04-.05,.05-.02,.01-.04,.02-.07,.02-.02,0-.05,0-.07,0-.02,0-.04-.02-.06-.03-.06-.04-.11-.1-.13-.17-.02-.07-.02-.15,0-.22,.04-.13,.07-.26,.07-.39,0-.14-.03-.28-.09-.4-.06-.13-.14-.24-.25-.33-.02-.01-.03-.03-.05-.04-.01,0-.03-.01-.05-.01-.02,0-.03,0-.04,.02-.03,.03-.06,.06-.08,.1-.12,.22-.22,.45-.32,.68-.07,.18-.07,.39,0,.57,.04,.12,.08,.23,.11,.34,.01,.03,.02,.07,.01,.1,0,.03-.01,.07-.03,.1-.02,.03-.04,.06-.07,.08s-.06,.04-.09,.05c-.05,.01-.1,.02-.14,0-.05-.01-.09-.03-.13-.07s-.06-.07-.08-.12c-.01-.05-.02-.1,0-.14,.02-.11,.06-.22,.11-.33,.05-.12,.07-.26,.06-.39-.02-.13-.07-.26-.15-.37-.07-.1-.13-.21-.17-.33,0-.05-.04-.09-.07-.11-.04-.03-.08-.04-.13-.04-.05,0-.1,.03-.14,.07-.06,.05-.1,.12-.13,.2-.02,.08-.03,.16,0,.23,.02,.08,.04,.16,.05,.24,.01,.04,0,.09,0,.13-.01,.04-.04,.08-.08,.1-.01,0-.03,.02-.04,.02-.02,0-.03,0-.05,0-.02,0-.03,0-.04-.02-.01,0-.02-.02-.03-.03-.04-.06-.06-.13-.05-.2,.01-.1,.03-.19,.05-.28,.02-.07,.01-.15-.02-.21-.03-.07-.08-.12-.15-.15-.02-.01-.04-.02-.06-.02-.02,0-.04,0-.06,0-.02,0-.04,.02-.05,.04-.01,.02-.03,.04-.03,.06,0,0,0,.01,0,.02-.03,.07-.07,.08-.12,.02-.07-.07-.11-.15-.12-.25-.01-.18,0-.35,.07-.52,.06-.16,.1-.32,.14-.48,.01-.06,.01-.12,0-.18,0-.03-.02-.06-.03-.09-.02-.03-.04-.05-.07-.06-.06-.03-.13-.05-.2-.06-.04,0-.07,0-.1,.02-.03,.01-.06,.03-.09,.06-.02,.03-.04,.06-.05,.09,0,.03-.01,.07,0,.1,0,.06,.01,.12,.02,.18,0,.03,0,.05-.01,.08,0,.03-.02,.05-.04,.07-.02,.02-.04,.03-.07,.04-.02,0-.05,.01-.08,0-.05,0-.1-.03-.14-.07-.03-.04-.05-.09-.05-.15,.02-.14,.06-.27,.12-.39,.07-.13,.12-.27,.14-.42,0-.2,.09-.37,.15-.55,.03-.1,.05-.21,.04-.32,0-.08-.04-.16-.1-.22-.17-.19-.12-.38,.07-.53,.08-.06,.17-.1,.26-.13,.07-.03,.14-.07,.21-.12,.05-.04,.11-.07,.18-.09,.04-.01,.08-.04,.11-.07,.03-.03,.05-.07,.06-.11,.03-.08,.04-.16,.05-.24,.03-.32,.23-.49,.52-.56,.1-.02,.2-.03,.3-.03,.08,0,.16,.03,.22,.08,.04,.03,.09,.07,.14,.11,.05,.04,.1,.06,.16,.06,.06,0,.12-.02,.16-.05,.05-.03,.1-.07,.16-.09,.02-.02,.05-.03,.08-.03,.03,0,.06,0,.08,0,.03,0,.05,.02,.08,.04,.02,.02,.04,.04,.05,.07,.03,.05,.06,.1,.09,.16,.01,.02,.03,.04,.04,.06,.02,.02,.04,.03,.07,.04,.02,0,.05,.01,.07,0s.05-.01,.07-.02c.04-.02,.09-.05,.14-.07,.02-.02,.05-.03,.08-.03,.03,0,.06,0,.08,0,.03,0,.05,.02,.07,.04,.02,.02,.03,.04,.04,.07,.04,.12,.05,.24,.02,.36-.02,.1-.05,.21-.06,.31,0,.07,0,.15,.03,.21,.03,.07,.07,.13,.13,.17,.06,.05,.12,.1,.17,.15,.1,.09,.17,.22,.19,.35,.05,.22,.12,.43,.22,.63,.04,.09,.06,.19,.08,.28,0,.01,0,.03,0,.04Z"/>
          <path class="cls-2" d="M176.89,163.2h1.73s0-3.87,0-3.87h-1.09c-.3,0-.52-.06-.65-.18-.13-.12-.19-.32-.19-.59v-3.12s1.89,0,1.89,0v-3.79s-1.89,0-1.89,0v-2.78s-4.56,0-4.56,0v2.79s-1.44,0-1.44,0v2.54c.22,.08,.43,.17,.64,.28,.95,.48,1.75,1.23,2.29,2.15,.54,.92,.82,2,.82,3.21,.01,.91-.17,1.81-.53,2.64,.76,.48,1.75,.73,2.99,.73Z"/>
          <path class="cls-2" d="M164.99,154.48c.36-.18,.74-.33,1.13-.44v-2.41c-.74,0-1.47,.21-2.1,.6-.68,.41-1.26,.96-1.7,1.61v-2.13s-4.55,0-4.55,0v11.54s4.56,0,4.56,0v-1.02c-.3-.77-.45-1.58-.44-2.4,0-1.21,.27-2.29,.82-3.21,.54-.92,1.33-1.67,2.28-2.15Z"/>
          <rect class="cls-2" x="127.27" y="151.75" width="4.55" height="7.22"/>
          <path class="cls-2" d="M145,163.28v-6.69c0-1.51-.37-2.72-1.12-3.6-.75-.89-1.78-1.33-3.11-1.33-.82,0-1.53,.17-2.12,.51-.58,.32-1.07,.78-1.43,1.33v-1.76s-4.56,0-4.56,0v11.54s4.56,0,4.56,0v-6.12c0-.55,.14-.98,.43-1.3,.29-.32,.7-.48,1.19-.48s.89,.16,1.18,.48c.29,.32,.44,.75,.44,1.3v6.12s4.54,0,4.54,0Z"/>
          <path class="cls-2" d="M129.44,147.34l-.29-.12h-.02c-.1-.05-.2-.08-.3-.1-.4-.08-.76,.02-1.03,.33-.17,.21-.28,.47-.3,.74-.05,.38-.01,.76,.1,1.12,.12,.44,.39,.82,.76,1.08,.37,.26,.82,.39,1.28,.35,.73-.04,1.33-.34,1.66-.96,.17-.33,.27-.69,.3-1.06,.03-.29,0-.59-.08-.87-.26-.79-1.15-1.04-1.78-.5,0,0-.02,.01-.03,.02h-.01c.04-.12,.06-.23,.11-.34,.11-.26,.29-.44,.6-.45,.02,0,.04,0,.05-.01s.03-.02,.04-.03c.01-.01,.02-.03,.03-.05,0-.02,0-.04,0-.05,0-.02,0-.04-.01-.05,0-.02-.02-.03-.03-.04-.01-.01-.03-.02-.05-.03-.02,0-.04,0-.06,0-.18,0-.36,.06-.51,.17l-.05,.03s0-.03,0-.03c-.03-.12-.07-.23-.14-.33-.07-.1-.16-.18-.26-.25-.1-.07-.22-.11-.33-.13-.12-.02-.24-.02-.36,0-.04,0-.07,.02-.09,.04-.03,.02-.04,.06-.05,.09-.05,.21-.02,.43,.08,.62,.1,.19,.26,.35,.46,.43,.12,.05,.25,.07,.37,.07-.02,.04-.03,.09-.04,.14,0,.05-.01,.09-.02,.14Z"/>
          <polygon class="cls-2" points="121.84 148.14 121.85 163.27 131.83 163.27 131.83 159.83 126.4 159.83 126.4 148.14 121.84 148.14"/>
        </g>
        <path class="cls-2" d="M165.65,170.51c.08-.11,0-.24-.11-.3,0,0-6.64-3.49-6.78-3.58-.08-.05-.16-.08-.26-.03-.1,.06-.09,.15-.08,.25l.78,7.59c0,.13,.14,.33,.29,.24,0,0,1.82-1.23,1.82-1.23,.55,.81,1.72,2.55,2.26,3.35,.13,.19,.2,.2,.39,.07,.52-.35,1.51-1.02,2.04-1.38,.17-.12,.19-.19,.07-.36-.55-.81-1.72-2.56-2.27-3.37,.06-.06,1.82-1.19,1.86-1.27Z"/>
      </g>
    </g>
  </g>
</svg>