<?xml version="1.0" encoding="UTF-8"?>
<svg id="Layer_2" data-name="Layer 2" xmlns="http://www.w3.org/2000/svg" viewBox="0 0 324 137.23">
  <defs>
    <style>
      .cls-1 {
        fill: #fff;
      }

      .cls-2 {
        fill: #e8271d;
      }
    </style>
  </defs>
  <g id="Layer_1-2" data-name="Layer 1">
    <g>
      <path class="cls-1" d="M260.17,137.23c2.81,0,5.09-2.28,5.09-5.1h0c0-2.81,2.28-5.09,5.09-5.1l14.11-.02c15.85-.46,29.22-8.15,35.1-20.34,0,0,3.51-6.64,4.43-21,0-.1,0-49.3,0-49.3,0-8.63-6.99-15.62-15.62-15.62h-20.64s-1.13-.13-1.13-.13c-2.42-.47-4.92-.7-7.42-.7-7.88,0-15.58,2.34-21.66,6.58-2.1,1.46-4.82,1.73-7.37,.55-.28-.13-.55-.31-.79-.5-7.15-5.53-15.2-6.28-22.83-6.28-2.83,0-5.67,.12-8.68,.24-1.54,.06-4.86,.18-4.86,.18-3.16,0-5.92-2.07-6.85-5.16C203.36,6.39,193.95,0,183.25,0c-6.15,0-11.74,2.21-15.73,6.24-1.32,1.33-3.19,2.09-5.12,2.09h-61.39c-4.59,0-7.9,3.75-7.94,8.33-.02,2.38-1.96,4.3-4.34,4.3h-4.7s-3.94-1.41-10.82-1.41c-3.19,0-6.14,.39-8.83,1.17-.6,.16-1.22,.24-1.83,.24H15.62C6.99,20.96,0,27.96,0,36.59L.42,121.57c0,8.63,6.99,15.62,15.62,15.62l244.13,.04Z"/>
      <g>
        <path class="cls-2" d="M25.4,121.6l-3.96-7.16h-1.11v7.16s-4.63,0-4.63,0v-18.97s7.77,0,7.77,0c1.5,0,2.78,.26,3.83,.78,1.05,.52,1.84,1.24,2.37,2.15,.53,.93,.8,1.98,.79,3.04,.02,1.21-.36,2.4-1.07,3.38-.71,.99-1.76,1.69-3.15,2.11l4.39,7.51h-5.23Zm-5.06-10.43h2.88c.85,0,1.49-.21,1.91-.62,.42-.41,.64-1,.64-1.76s-.21-1.29-.64-1.7c-.42-.41-1.06-.62-1.91-.62h-2.88s0,4.7,0,4.7Z"/>
        <path class="cls-2" d="M51.42,106.34v3.83h6.2s0,3.57,0,3.57h-6.2v4.16h7.02s0,3.7,0,3.7h-11.65s0-18.97,0-18.97h11.65s0,3.71,0,3.71h-7.02Z"/>
        <path class="cls-2" d="M78.02,121.12c-1.05-.41-1.96-1.1-2.64-2-.66-.88-1.01-1.95-1.04-3.19h4.93c.07,.7,.32,1.24,.73,1.61,.42,.37,.96,.55,1.62,.55s1.23-.16,1.63-.47c.4-.32,.6-.75,.6-1.31,0-.22-.03-.43-.11-.63-.08-.2-.2-.38-.36-.53-.34-.32-.73-.58-1.16-.76-.64-.26-1.3-.49-1.96-.67-1.03-.3-2.04-.68-3.01-1.13-.79-.39-1.48-.97-2-1.68-.56-.74-.84-1.7-.84-2.89,0-1.77,.64-3.15,1.92-4.15,1.28-1,2.95-1.5,5.01-1.5,2.1,0,3.78,.5,5.06,1.5,1.28,1,1.97,2.39,2.06,4.17h-5.01c-.03-.61-.26-1.09-.68-1.45-.42-.35-.95-.53-1.6-.53-.56,0-1.01,.15-1.35,.44-.34,.3-.52,.73-.52,1.29,0,.61,.29,1.09,.87,1.43,.58,.34,1.48,.71,2.71,1.11,1.02,.33,2.02,.73,2.99,1.19,.78,.39,1.46,.95,1.99,1.65,.56,.72,.84,1.65,.84,2.78,.01,1.04-.27,2.06-.82,2.95-.55,.88-1.35,1.59-2.4,2.11-1.04,.52-2.28,.78-3.71,.78-1.39,0-2.64-.22-3.74-.67Z"/>
        <path class="cls-2" d="M109.61,106.34v3.83h6.2s0,3.57,0,3.57h-6.2v4.16h7.02s0,3.7,0,3.7h-11.65s0-18.97,0-18.97h11.65s0,3.71,0,3.71h-7.02Z"/>
        <path class="cls-2" d="M144.9,118.25h-7.1s-1.14,3.35-1.14,3.35h-4.85s6.88-18.97,6.88-18.97h5.36s6.88,18.97,6.88,18.97h-4.9s-1.14-3.35-1.14-3.35Zm-1.19-3.56l-2.36-6.95-2.33,6.95h4.68Z"/>
        <path class="cls-2" d="M176.16,121.6l-3.96-7.16h-1.11v7.16s-4.63,0-4.63,0v-18.97s7.77,0,7.77,0c1.5,0,2.78,.26,3.83,.78s1.85,1.24,2.37,2.15c.53,.93,.8,1.98,.79,3.04,.02,1.21-.36,2.4-1.07,3.38-.71,.99-1.76,1.69-3.15,2.11l4.39,7.51h-5.23Zm-5.07-10.43h2.88c.85,0,1.49-.21,1.91-.62,.42-.41,.64-1,.64-1.76s-.21-1.29-.64-1.7c-.42-.41-1.06-.62-1.91-.62h-2.88v4.7Z"/>
        <path class="cls-2" d="M197.99,107.08c.79-1.44,1.97-2.63,3.4-3.43,1.46-.82,3.1-1.23,4.94-1.23,2.26,0,4.19,.59,5.8,1.78,1.61,1.19,2.68,2.81,3.22,4.86h-5.09c-.34-.75-.9-1.38-1.61-1.81-.72-.42-1.54-.64-2.37-.62-1.42,0-2.58,.5-3.47,1.49-.89,.99-1.33,2.31-1.33,3.97,0,1.66,.44,2.98,1.33,3.97,.88,.99,2.04,1.48,3.47,1.49,.83,.01,1.65-.2,2.37-.62,.71-.43,1.27-1.06,1.61-1.81h5.09c-.54,2.05-1.62,3.67-3.22,4.85-1.61,1.18-3.54,1.77-5.8,1.77-1.84,0-3.49-.41-4.94-1.23-1.43-.8-2.61-1.98-3.4-3.42-.81-1.46-1.22-3.13-1.22-5,0-1.87,.4-3.54,1.22-5.01Z"/>
        <path class="cls-2" d="M248.1,102.63v18.97s-4.63,0-4.63,0v-7.81h-7.21v7.81s-4.63,0-4.63,0v-18.97s4.63,0,4.63,0v7.43h7.21v-7.43s4.63,0,4.63,0Z"/>
        <path class="cls-2" d="M178.24,28.26c-1.49-1.42-2.23-3.19-2.23-5.3,0-2.12,.74-3.89,2.23-5.31,1.48-1.42,3.35-2.13,5.59-2.13,2.24,0,4.11,.71,5.59,2.13,1.49,1.42,2.23,3.19,2.23,5.31,0,2.12-.74,3.88-2.23,5.3-1.49,1.42-3.35,2.13-5.59,2.13s-4.1-.71-5.59-2.13Zm11.86,8.12v50.24s-12.73,0-12.73,0V36.38s12.73,0,12.73,0Z"/>
        <path class="cls-2" d="M242.55,41.32c3.7,3.78,5.54,9.05,5.54,15.82v29.47s-12.72,0-12.72,0v-27.75c0-3.99-1-7.06-3-9.21-2-2.15-4.73-3.22-8.18-3.21-3.51,0-6.28,1.07-8.32,3.22-2.03,2.15-3.05,5.22-3.04,9.21v27.75s-12.73,0-12.73,0V36.38s12.73,0,12.73,0v6.26c1.7-2.18,3.86-3.89,6.5-5.12,2.64-1.24,5.53-1.86,8.68-1.86,6,0,10.85,1.89,14.54,5.67Z"/>
        <path class="cls-2" d="M288.98,37.78c2.85,1.48,5.09,3.4,6.73,5.76v-7.16s12.82,0,12.82,0v50.6c0,4.65-.94,8.81-2.82,12.47-1.88,3.66-4.7,6.56-8.45,8.7-3.76,2.15-8.3,3.22-13.64,3.22-7.15,0-13.02-1.66-17.59-4.99-4.57-3.33-7.16-7.86-7.77-13.6h12.64c.67,2.3,2.11,4.13,4.32,5.49,2.21,1.36,4.89,2.04,8.04,2.04,3.7,0,6.69-1.1,9-3.31,2.3-2.21,3.45-5.55,3.46-10.02v-7.8c-1.64,2.36-3.89,4.32-6.77,5.9-2.88,1.57-6.17,2.36-9.87,2.36-4.24,0-8.12-1.09-11.63-3.27-3.51-2.18-6.29-5.25-8.32-9.2-2.03-3.96-3.05-8.51-3.04-13.65,0-5.08,1.01-9.58,3.04-13.51,2.03-3.93,4.79-6.95,8.27-9.07,3.48-2.11,7.38-3.17,11.68-3.17,3.76,0,7.06,.74,9.91,2.22Zm4.91,15.78c-1.21-2.21-2.85-3.9-4.91-5.08-2.02-1.17-4.31-1.78-6.64-1.77-2.3-.02-4.56,.58-6.55,1.72-2,1.15-3.62,2.83-4.86,5.03-1.24,2.21-1.87,4.82-1.87,7.84,0,3.02,.62,5.67,1.87,7.94,1.24,2.27,2.88,4,4.91,5.21,1.96,1.19,4.21,1.82,6.5,1.81,2.33,0,4.62-.6,6.64-1.77,2.06-1.18,3.7-2.87,4.91-5.08,1.21-2.21,1.82-4.85,1.82-7.94,0-3.08-.6-5.73-1.81-7.94Z"/>
        <path class="cls-2" d="M34.76,37.92c2.63-1.51,5.65-2.27,9.04-2.27v13.33s-3.36,0-3.36,0c-4,0-7.01,.94-9.05,2.81-2.03,1.87-3.05,5.14-3.04,9.79v25.03s-12.73,0-12.73,0V36.38s12.73,0,12.73,0v7.8c1.64-2.66,3.77-4.75,6.41-6.26Z"/>
        <path class="cls-2" d="M60.07,84.21c-3.88-2.14-6.92-5.18-9.13-9.11-2.21-3.93-3.32-8.47-3.32-13.61,0-5.14,1.14-9.67,3.41-13.6,2.27-3.93,5.38-6.97,9.32-9.11,3.94-2.15,8.33-3.22,13.18-3.22,4.85,0,9.24,1.07,13.18,3.22,3.94,2.15,7.05,5.18,9.32,9.11,2.27,3.93,3.41,8.46,3.41,13.6,0,5.14-1.17,9.68-3.5,13.6-2.33,3.93-5.48,6.96-9.45,9.11-3.97,2.15-8.41,3.22-13.32,3.22-4.85,0-9.21-1.07-13.09-3.22Zm19.59-9.52c2.03-1.12,3.65-2.8,4.86-5.03,1.21-2.24,1.82-4.96,1.82-8.16,0-4.78-1.26-8.45-3.77-11.02-2.51-2.57-5.59-3.85-9.23-3.85-3.64,0-6.68,1.28-9.13,3.85-2.45,2.57-3.68,6.24-3.68,11.02,0,4.78,1.2,8.45,3.59,11.02,2.39,2.57,5.41,3.85,9.05,3.86,2.27,0,4.51-.57,6.49-1.68Z"/>
        <path class="cls-2" d="M168.04,46.81v-10.43h-11.27s0-12.42,0-12.42h-12.82v12.42s-22.45,0-22.45,0v-12.42h-12.82v12.42s-6,0-6,0v10.43h6s0,24.21,0,24.21c0,10.4,5.36,15.6,16.09,15.6h8v-10.7h-5.91c-1.94,0-3.32-.38-4.14-1.13-.82-.76-1.23-1.98-1.23-3.67v-24.3s22.45,0,22.45,0v24.21c0,10.4,5.36,15.6,16.09,15.6h8v-10.7h-5.91c-1.94,0-3.32-.38-4.14-1.13-.82-.76-1.23-1.98-1.23-3.67v-24.3s11.28,0,11.28,0Z"/>
      </g>
    </g>
  </g>
</svg>