<?xml version="1.0" encoding="UTF-8"?>
<svg id="Layer_2" data-name="Layer 2" xmlns="http://www.w3.org/2000/svg" viewBox="0 0 272.15 139.48">
  <defs>
    <style>
      .cls-1 {
        fill: #010101;
      }

      .cls-2 {
        fill: #fff;
      }
    </style>
  </defs>
  <g id="Layer_1-2" data-name="Layer 1">
    <g>
      <path class="cls-2" d="M270.41,13.74c-1.12-2.71-2.76-5.14-4.84-7.22-2.09-2.08-4.53-3.71-7.25-4.83C255.61,.57,252.73,0,249.79,0L22.32,.1c-.73,0-1.46,.04-2.18,.11C15.01,.71,10.18,2.99,6.54,6.63,2.32,10.84,0,16.44,0,22.4L.03,90.89c0,5.96,2.33,11.56,6.56,15.77,4.22,4.2,9.82,6.52,15.78,6.51l134.71-.06,.94,9.21c.24,2.62,1.52,5.09,3.53,6.8,2.01,1.71,4.54,2.5,7.12,2.25,1.18-.12,2.34-.46,3.4-1l3.1,4.59c3.07,4.55,7.38,4.65,9.09,4.48s3.24-.75,4.78-1.79l1.07-.72,6.21-4.19c4.69-3.17,5.84-9.09,2.67-13.78-.79-1.17-1.94-2.87-3.16-4.68,.48-.41,.86-.79,1.19-1.18l52.8-.02c.73,0,1.46-.04,2.19-.11,5.12-.51,9.95-2.78,13.59-6.42,4.22-4.21,6.54-9.81,6.54-15.77l-.03-68.49c0-2.95-.58-5.83-1.71-8.55Z"/>
      <g>
        <polygon class="cls-1" points="159.06 40.27 145.86 40.27 135.53 55.71 135.52 27.4 119.23 27.41 119.26 81.55 135.54 81.54 135.53 65.08 145.73 81.54 159.07 81.53 159.07 73.65 149.32 61.05 159.06 47.96 159.06 40.27"/>
        <path class="cls-1" d="M216.52,58.91c-1.71-2.91-4.22-5.26-7.23-6.79-3.2-1.54-6.71-2.34-10.26-2.34s-7.06,.81-10.26,2.35c-3.01,1.52-5.52,3.88-7.23,6.79-1.73,2.93-2.6,6.41-2.6,10.32s.88,7.39,2.6,10.32c1.7,2.91,4.22,5.28,7.23,6.8,3.2,1.54,6.71,2.34,10.26,2.34s7.06-.81,10.26-2.35c3.02-1.53,5.53-3.89,7.23-6.81h-.01c1.73-2.93,2.61-6.4,2.61-10.32,0-3.91-.88-7.38-2.61-10.32Zm-8.94,10.72c0,.32-.1,.41-.41,.39-.06-.02-.12-.02-.17-.02-.06,0-.12,0-.17,.04-.05,.03-.08,.09-.09,.15-.04,.32-.06,.65-.06,.98,0,.06,.06,.07,.12,.12-.13-.03-.13,.03-.1,.1,.06,.13,.12,.26,.18,.39,.03,.07,.06,.16,.09,.2s.04,.11,0,.13c-.05,.03-.09,0-.12-.03l-.32-.26c-.23-.17-.33-.16-.52,.05-.12,.14-.19,.32-.19,.51-.01,.5,.01,.99,.07,1.48,.07,.31,.18,.61,.34,.88,.15,.25,.27,.52,.34,.81,.04,.24-.02,.5-.15,.7-.06,.09-.14,.16-.24,.19-.1,.04-.21,.04-.31,.01-.1-.01-.19-.06-.26-.13-.07-.07-.12-.16-.14-.25-.02-.24,0-.48,.06-.72,.05-.31,.03-.64-.05-.95-.03-.15-.11-.28-.23-.38-.11-.1-.26-.17-.41-.19-.19-.03-.39,0-.57,.1-.17,.1-.3,.25-.37,.43-.15,.38-.23,.79-.24,1.19-.03,.54-.09,1.08-.18,1.61-.11,.79,0,1.59,.29,2.33,.15,.28,.26,.59,.34,.9,.02,.11,.01,.22,0,.32-.03,.11-.07,.21-.14,.3-.05,.07-.11,.13-.19,.17-.07,.04-.15,.07-.24,.08-.08,.01-.17,0-.25-.02-.08-.03-.16-.07-.22-.12-.22-.15-.38-.37-.46-.62-.08-.25-.08-.52,0-.77,.16-.45,.24-.93,.24-1.41,0-.5-.11-.99-.32-1.44-.2-.45-.51-.85-.88-1.18-.06-.05-.12-.09-.18-.13-.05-.03-.11-.05-.17-.05-.06,0-.11,.03-.15,.08-.12,.1-.21,.22-.28,.36-.42,.8-.77,1.62-1.14,2.45-.26,.66-.26,1.39,0,2.05,.13,.41,.28,.81,.41,1.22,.04,.12,.06,.24,.05,.37,0,.12-.04,.24-.1,.36-.06,.11-.14,.21-.23,.29s-.21,.14-.33,.17c-.17,.05-.34,.06-.51,.02-.17-.04-.33-.12-.46-.24s-.22-.27-.27-.43c-.05-.16-.06-.34-.02-.51,.09-.4,.22-.79,.39-1.16,.19-.44,.26-.92,.21-1.4-.06-.48-.23-.93-.52-1.31-.26-.36-.46-.75-.6-1.17-.03-.16-.13-.31-.26-.41-.13-.1-.3-.15-.47-.13-.19,.02-.37,.12-.5,.26-.21,.19-.37,.43-.45,.71-.08,.27-.09,.56-.02,.83,.08,.29,.14,.58,.19,.87,.04,.15,.03,.31-.03,.46-.05,.15-.15,.27-.28,.36-.04,.03-.1,.06-.15,.07-.06,.01-.11,.01-.17,0-.06,0-.11-.03-.15-.07-.05-.03-.09-.07-.12-.12-.14-.2-.2-.46-.16-.71,.04-.34,.11-.68,.19-1.02,.07-.25,.05-.53-.06-.77-.11-.24-.3-.43-.54-.55-.07-.04-.14-.07-.22-.08-.08-.01-.16,0-.23,.03-.08,.03-.14,.07-.19,.13-.05,.06-.09,.13-.11,.21-.03,.03-.03,.05-.03,.08-.1,.24-.25,.27-.44,.09-.24-.23-.4-.55-.44-.88-.05-.63,.03-1.26,.25-1.86,.2-.56,.37-1.14,.5-1.73,.04-.21,.05-.42,.02-.64-.01-.11-.05-.23-.12-.32-.07-.1-.16-.18-.26-.23-.22-.12-.47-.19-.72-.2-.13,0-.26,.01-.37,.06-.12,.05-.22,.12-.31,.22-.09,.1-.15,.21-.18,.33-.03,.12-.04,.25,0,.37,.03,.21,.05,.43,.05,.64,0,.09,0,.19-.04,.27-.03,.09-.09,.17-.15,.23-.07,.06-.15,.11-.24,.14-.09,.03-.18,.04-.28,.03-.19-.02-.37-.11-.5-.25-.12-.15-.19-.34-.18-.53,.07-.49,.22-.97,.44-1.41,.25-.47,.42-.97,.5-1.49,.03-.7,.32-1.31,.52-1.96,.12-.37,.17-.76,.14-1.15-.02-.29-.14-.57-.34-.78-.59-.67-.42-1.36,.26-1.89,.28-.2,.6-.36,.92-.48,.26-.11,.52-.25,.75-.43,.19-.15,.41-.26,.64-.34,.15-.04,.28-.13,.39-.23,.11-.11,.19-.25,.23-.39,.09-.28,.15-.57,.18-.86,.11-1.13,.82-1.76,1.84-2.01,.35-.09,.72-.12,1.08-.11,.28,.01,.56,.11,.78,.29,.16,.12,.33,.26,.5,.38,.16,.13,.36,.21,.58,.21,.21,0,.41-.05,.59-.18,.18-.12,.37-.24,.56-.34,.09-.06,.18-.09,.28-.11,.1-.01,.2,0,.3,.02,.1,.03,.19,.08,.27,.14,.08,.07,.14,.15,.18,.24,.11,.18,.2,.37,.31,.56,.04,.08,.09,.15,.16,.22,.07,.06,.15,.1,.24,.13,.09,.03,.18,.04,.27,.03s.18-.04,.26-.08c.15-.08,.33-.18,.49-.27,.08-.06,.17-.1,.27-.11,.1-.01,.2,0,.29,.03,.09,.03,.17,.09,.24,.16,.07,.07,.11,.16,.14,.25,.16,.41,.18,.87,.06,1.3-.07,.37-.17,.73-.22,1.11-.03,.26,0,.53,.1,.77,.1,.24,.26,.45,.47,.62,.2,.17,.42,.35,.61,.53,.36,.33,.6,.77,.68,1.25,.17,.78,.44,1.54,.79,2.26,.14,.32,.23,.66,.28,1.01,0,.05,0,.1,0,.15Z"/>
        <path class="cls-1" d="M230.23,81.25h6.17s-.03-13.82-.03-13.82h-3.89c-1.08,0-1.85-.22-2.31-.66-.45-.43-.68-1.14-.68-2.12v-11.14s6.74,0,6.74,0v-13.53s-6.75,0-6.75,0v-9.95s-16.29,0-16.29,0v9.96s-5.14,0-5.14,0v9.07c.78,.29,1.54,.62,2.27,.99,3.41,1.73,6.24,4.39,8.17,7.69,1.94,3.29,2.92,7.15,2.92,11.48,.04,3.24-.61,6.46-1.9,9.43,2.7,1.73,6.26,2.6,10.7,2.6Z"/>
        <path class="cls-1" d="M187.69,50.07c1.29-.65,2.65-1.17,4.05-1.56v-8.61c-2.65,.01-5.24,.77-7.49,2.16-2.42,1.46-4.49,3.42-6.08,5.75v-7.61s-16.28,0-16.28,0l.02,41.27h16.28s-.03-3.65-.03-3.65c-1.05-2.74-1.57-5.64-1.54-8.57,0-4.33,.98-8.2,2.92-11.49,1.93-3.29,4.76-5.96,8.17-7.69Z"/>
        <rect class="cls-1" x="52.85" y="40.33" width="16.28" height="25.8"/>
        <path class="cls-1" d="M116.25,81.55v-23.93c0-5.41-1.33-9.71-4-12.87-2.67-3.17-6.37-4.75-11.11-4.75-2.93,0-5.46,.61-7.59,1.83-2.06,1.15-3.81,2.78-5.1,4.75v-6.29s-16.28,0-16.28,0l.02,41.27h16.28s0-21.88,0-21.88c0-1.95,.51-3.5,1.54-4.65,1.03-1.14,2.49-1.72,4.25-1.72s3.17,.57,4.22,1.72c1.05,1.15,1.58,2.7,1.58,4.65v21.88s16.22,0,16.22,0Z"/>
        <path class="cls-1" d="M60.62,24.56l-1.02-.42-.07-.03c-.35-.14-.72-.25-1.08-.34-1.45-.27-2.71,.06-3.7,1.19-.63,.75-1,1.68-1.08,2.66-.16,1.35-.04,2.71,.36,4.01,.44,1.56,1.4,2.92,2.73,3.86,1.33,.93,2.94,1.38,4.56,1.26,2.61-.14,4.77-1.2,5.95-3.42,.62-1.17,.98-2.46,1.07-3.78,.11-1.04,.02-2.09-.29-3.1-.93-2.83-4.09-3.71-6.37-1.77-.03,.02-.06,.04-.09,.06l-.05-.02c.13-.4,.23-.81,.39-1.18,.4-.94,1.04-1.57,2.13-1.6,.07,0,.13-.01,.19-.04s.12-.06,.16-.11c.05-.05,.08-.1,.1-.17,.02-.06,.03-.13,.03-.19,0-.07-.02-.13-.05-.19-.03-.06-.07-.11-.12-.16-.05-.04-.11-.07-.17-.1-.06-.02-.13-.03-.2-.02-.66,0-1.3,.21-1.82,.61l-.16,.12c-.02-.06-.02-.09-.02-.12-.09-.42-.26-.82-.51-1.17-.25-.35-.56-.66-.93-.89-.36-.23-.77-.39-1.19-.46-.43-.08-.86-.07-1.28,.03-.13,.01-.24,.07-.33,.15-.09,.09-.15,.2-.17,.32-.17,.75-.08,1.54,.28,2.23,.36,.69,.94,1.23,1.65,1.54,.42,.17,.88,.25,1.33,.25-.06,.16-.1,.32-.13,.5-.03,.16-.05,.34-.07,.51Z"/>
        <polygon class="cls-1" points="33.46 27.44 33.48 81.53 69.14 81.51 69.15 69.22 49.76 69.23 49.74 27.44 33.46 27.44"/>
      </g>
      <path class="cls-1" d="M190.04,107.4c.29-.4,0-.85-.38-1.06,0,0-23.73-12.47-24.25-12.79-.29-.18-.59-.3-.91-.09-.34,.22-.32,.55-.28,.9l2.77,27.13c.03,.45,.51,1.18,1.03,.85,0,0,6.52-4.4,6.52-4.4,1.95,2.89,6.14,9.1,8.1,11.99,.45,.67,.71,.72,1.38,.27,1.87-1.27,5.41-3.65,7.28-4.92,.61-.41,.66-.68,.25-1.29-1.96-2.91-6.16-9.13-8.13-12.04,.23-.22,6.5-4.26,6.63-4.55Z"/>
    </g>
  </g>
</svg>